<svg id="Calque_1" data-name="Calque 1" xmlns="http://www.w3.org/2000/svg" viewBox="0 0 1659.8 511.94"><defs><style>.cls-1{fill:#fff;}.cls-2{fill:#607586;}</style></defs><path class="cls-1" d="M232.79,292.6c-51.17,0-78.21-35.08-78.21-74.55,0-45.32,27.77-82.6,78.94-82.6,24.11,0,44.59,8,62.13,26.32l71.63-77.48c-38-38-89.9-56.29-141.81-56.29C123.88,28,23,85.75,23,217.32c0,135.22,99.41,187.12,204.67,187.12,54.09,0,106-22.66,149.11-61.39L300,262.63C281.76,282.38,257.63,292.6,232.79,292.6Z" transform="translate(-23 -28)"/><path class="cls-1" d="M1533.69,404.44c54.09,0,106-22.66,149.11-61.39l-76.75-80.42c-18.27,19.75-42.39,30-67.24,30-51.17,0-78.21-35.08-78.21-74.55,0-45.32,27.77-82.6,78.94-82.6,24.12,0,44.59,8,62.13,26.32l71.63-77.48c-38-38-89.9-56.29-141.81-56.29C1429.9,28,1329,85.75,1329,217.32,1329,352.54,1428.43,404.44,1533.69,404.44Z" transform="translate(-23 -28)"/><path class="cls-1" d="M665.46,28.39c-5.39-.21-10.9-.43-16.48-.38l-.47.54L649,28V129.17h49.16a8.38,8.38,0,0,1,8.35,8.36V279.44a8.38,8.38,0,0,1-8.35,8.35H556.26a8.38,8.38,0,0,1-8.36-8.35V28.28H422.09V539.94H556.58V358.66c19.74,24.13,54.1,38.75,100.15,38.75,105.25,0,175.43-78.21,175.43-188.59C832.16,94.79,770,32.49,665.46,28.39Z" transform="translate(-23 -28)"/><path class="cls-1" d="M1061.6,396.25l.09-.09V295.1h-49.16a8.38,8.38,0,0,1-8.36-8.36V144.84a8.38,8.38,0,0,1,8.36-8.36h141.91a8.39,8.39,0,0,1,8.36,8.36l-.1,251.51h-.29l.12.78h124.26V36H1160.34l-6.58,38.74c-19-29.24-54.82-46.78-106-46.78-105.26,0-175.43,81.87-175.43,188.58,0,105.26,58.72,173.1,164.71,179.67C1046.72,396.78,1061.6,396.25,1061.6,396.25Z" transform="translate(-23 -28)"/><path class="cls-2" d="M1154.44,295.1h-92.75V396.25l.5-.53,98-103A8.31,8.31,0,0,1,1154.44,295.1Z" transform="translate(-23 -28)"/><path class="cls-2" d="M550.5,131.51a8.29,8.29,0,0,1,5.76-2.34H649V28l-.5.53Z" transform="translate(-23 -28)"/></svg>